# AST/ASF file generated using VICON BodyLanguage
# -----------------------------------------------
:version 1.10
:name VICON
:units
  mass 1.0
  length 0.45
  angle deg
:documentation
   .ast/.asf automatically generated from VICON data using
   VICON BodyBuilder and BodyLanguage model FoxedUp or BRILLIANT.MOD
:root
   order TX TY TZ RX RY RZ
   axis XYZ
   position 0 0 0  
   orientation 0 0 0 
:bonedata
  begin
     id 1 
     name lhipjoint
     direction 0.671379 -0.66392 0.329334 
     length 2.38647 
     axis 0 0 0  XYZ
  end
  begin
     id 2 
     name lfemur
     direction 0.34202 -0.939693 0  
     length 6.48179  
     axis 0 0 20  XYZ
    dof rx ry rz
    limits (-160.0 20.0)
           (-70.0 70.0)
           (-60.0 70.0)
  end
  begin
     id 3 
     name ltibia
     direction 0.34202 -0.939693 0   
     length 6.86524   
     axis 0 0 20   XYZ
    dof rx
    limits (-10.0 170.0)
  end
  begin
     id 4 
     name lfoot
     direction 0.204886 -0.562919 0.800715   
     length 1.73031   
     axis -90 7.62852e-016 20   XYZ
    dof rx rz
    limits (-45.0 90.0)
           (-70.0 20.0)
  end
  begin
     id 5 
     name ltoes
     direction 1.53548e-011 -4.21841e-011 1   
     length 0.828161   
     axis -90 7.62852e-016 20   XYZ
    dof rx
    limits (-90.0 20.0)
  end
  begin
     id 6 
     name rhipjoint
     direction -0.662732 -0.670855 0.332775   
     length 2.3618  
     axis 0 0 0  XYZ 
  end
  begin
     id 7 
     name rfemur
     direction -0.34202 -0.939693 0   
     length 6.3025   
     axis 0 0 -20   XYZ
    dof rx ry rz
    limits (-160.0 20.0)
           (-70.0 70.0)
           (-70.0 60.0)
  end
  begin
     id 8 
     name rtibia
     direction -0.34202 -0.939693 0   
     length 6.8732   
     axis 0 0 -20   XYZ
    dof rx
    limits (-10.0 170.0)
 end
 begin
     id 9 
     name rfoot
     direction -0.173856 -0.477665 0.861168   
     length 1.54784  
     axis -90 -7.62852e-016 -20   XYZ
    dof rx rz
    limits (-45.0 90.0)
           (-20.0 70.0)
  end
  begin
     id 10 
     name rtoes
     direction -1.53562e-011 -4.21802e-011 1   
     length 0.759618   
     axis -90 -7.62852e-016 -20   XYZ
    dof rx
    limits (-90.0 20.0)
  end
  begin
     id 11 
     name lowerback
     direction -0.0278357 0.999497 -0.0151789   
     length 1.97203   
     axis 0 0 0   XYZ
    dof rx ry rz
    limits (-20.0 45.0)
           (-30.0 30.0)
           (-30.0 30.0)
  end
  begin
     id 12 
     name upperback
     direction -0.00360622 0.997542 0.0699804   
     length 1.94709   
     axis 0 0 0   XYZ
    dof rx ry rz
    limits (-20.0 45.0)
           (-30.0 30.0)
           (-30.0 30.0)
  end
  begin
     id 13 
     name thorax
     direction 0.00907706 0.997048 0.0762461   
     length 1.95722   
     axis 0 0 0   XYZ
    dof rx ry rz
    limits (-20.0 45.0)
           (-30.0 30.0)
           (-30.0 30.0)
  end
  begin
     id 14 
     name lowerneck
     direction -0.0481835 0.99872 -0.0153927   
     length 1.63078   
     axis 0 0 0   XYZ
    dof rx ry rz
    limits (-20.0 45.0)
           (-30.0 30.0)
           (-30.0 30.0)
  end
  begin
     id 15 
     name upperneck
     direction 0.0859716 0.979226 -0.183644   
     length 1.62591   
     axis 0 0 0   XYZ
    dof rx ry rz
    limits (-20.0 45.0)
           (-30.0 30.0)
           (-30.0 30.0)
  end
  begin
     id 16
     name head
     direction 0.0324821 0.997629 -0.0606773  
     length 1.64811  
     axis 0 0 0   XYZ
    dof rx ry rz
    limits (-20.0 45.0)
           (-30.0 30.0)
           (-30.0 30.0)
  end
  begin
     id 17 
     name lclavicle
     direction 0.939609 0.311019 0.142835  
     length 3.70647  
     axis 0 0 0   XYZ
    dof ry rz
    limits (-20.0 10.0)
           (0.0 20.0)
  end
  begin
     id 18 
     name lhumerus
     direction 1 -4.48963e-011 -1.59838e-027   
     length 4.59207   
     axis 180 -30 -90   XYZ
    dof rx ry rz
    limits (-60.0 90.0)
           (-90.0 90.0)
           (-90.0 90.0)
  end
  begin
     id 19
     name lradius
     direction 1 -4.48957e-011 -1.3483e-026   
     length 2.98109   
     axis 180 -30 -90   XYZ
    dof rx
    limits (-10.0 170.0)
  end
  begin
     id 20
     name lwrist
     direction 1 -4.48954e-011 -3.11579e-026   
     length 1.49055   
     axis 2.00652e-014 90 90   XYZ
    dof ry
    limits (-180.0 0.0)
 end
  begin
     id 21 
     name lhand
     direction 1 -4.4911e-011 -6.23158e-026   
     length 0.480203   
     axis 3.97628e-014 90 90   XYZ
    dof rx rz
    limits (-90.0 90.0)
           (-45.0 45.0)
  end
  begin
     id 22 
     name lfingers
     direction 1 -4.48893e-011 -1.24632e-025   
     length 0.387152   
     axis 7.95256e-014 90 90   XYZ
    dof rx
    limits (0.0 90.0)
  end
  begin
     id 23
     name lthumb
     direction 0.707107 -6.35013e-011 0.707107   
     length 0.555875   
     axis -90 45 2.85299e-015   XYZ
    dof rx rz
    limits (-45.0 45.0)
           (-45.0 45.0)
  end
  begin
     id 24 
     name rclavicle
     direction -0.950396 0.30392 0.0661859   
     length 3.70894  
     axis 0 0 0   XYZ 
    dof ry rz
    limits (-10.0 20.0)
           (-20.0 0.0)
  end
  begin
     id 25 
     name rhumerus
     direction -1 -4.48957e-011 -2.96677e-027  
     length 4.76508   
     axis 180 30 90   XYZ
    dof rx ry rz
    limits (-90.0 60.0)
           (-90.0 90.0)
           (-90.0 90.0)
  end
  begin
     id 26 
     name rradius
     direction -1 -4.48974e-011 -1.44501e-026   
     length 2.78902   
     axis 180 30 90   XYZ
    dof rx
    limits (-10.0 170.0)
  end
  begin
     id 27 
     name rwrist
     direction -1 -4.48978e-011 -3.11579e-026   
     length 1.39451   
     axis 2.00652e-014 -90 -90   XYZ
    dof ry
    limits (-180.0 0.0)
  end
  begin
     id 28
     name rhand
     direction -1 -4.48956e-011 -6.23158e-026   
     length 0.721303   
     axis 3.97628e-014 -90 -90   XYZ
    dof rx rz
    limits (-90.0 90.0)
           (-45.0 45.0)
  end
  begin
     id 29
     name rfingers
     direction -1 -4.4899e-011 -1.24632e-025   
     length 0.581533   
     axis 7.95256e-014 -90 -90   XYZ
    dof rx
    limits (0.0 90.0)
  end
  begin
     id 30
     name rthumb
     direction -0.707107 -6.34911e-011 0.707107   
     length 0.834968   
     axis -90 -45 -2.85299e-015   XYZ
    dof rx rz
    limits (-45.0 45.0)
           (-45.0 45.0)
  end
:hierarchy
  begin
    root lhipjoint rhipjoint lowerback
    lhipjoint lfemur
    lfemur ltibia
    ltibia lfoot
    lfoot ltoes
    rhipjoint rfemur
    rfemur rtibia
    rtibia rfoot
    rfoot rtoes
    lowerback upperback
    upperback thorax
    thorax lowerneck lclavicle rclavicle
    lowerneck upperneck
    upperneck head
    lclavicle lhumerus
    lhumerus lradius
    lradius lwrist
    lwrist lhand lthumb
    lhand lfingers
    rclavicle rhumerus
    rhumerus rradius
    rradius rwrist
    rwrist rhand rthumb
    rhand rfingers
  end

#!OML:ASF I:\salsa\salsa 7_09\Patient 1\Session 1\dancerfemale.ASF
:FULLY-SPECIFIED
:DEGREES
562
root 12.3123 15.6728 -1.959 -400.516 -104.135 398.837
lowerback 6.66797 3.25235 4.78448
upperback -1.05228 4.84237 4.70517
thorax -4.85208 2.27812 1.70499
lowerneck -3.24816 -1.67186 -6.89883
upperneck 25.07 -2.39954 -0.0297966
head 8.40237 -2.10307 0.921402
rclavicle -9.74045e-015 -4.01545e-014
rhumerus -20.4357 24.7674 -102.112
rradius 54.5785
rwrist 8.59716
rhand -1.33613 60.5756
rfingers 7.12502
rthumb 24.31 32.0972
lclavicle -9.74045e-015 -4.01545e-014
lhumerus -22.3807 17.9628 45.689
lradius 108.461
lwrist 49.5244
lhand 2.57548 43.2833
lfingers 7.12502
lthumb 28.0548 71.2057
rfemur -15.352 -11.97 31.0092
rtibia 29.0032
rfoot -16.5275 25.3241
rtoes -11.7884
lfemur -21.693 -1.39241 -13.2871
ltibia 71.152
lfoot -11.0831 4.23002
ltoes -32.0111
563
root 12.1607 15.6364 -2.00994 -403.235 -105.241 401.357
lowerback 7.36653 3.33608 5.88344
upperback -0.916675 5.08929 5.03964
thorax -5.04354 2.35658 1.38719
lowerneck -3.25571 -1.61918 -6.66532
upperneck 25.0676 -2.27717 -0.360662
head 8.39193 -2.05489 0.780758
rclavicle 6.8295e-014 3.97569e-014
rhumerus -21.5025 24.458 -102.778
rradius 53.6807
rwrist 9.0956
rhand -1.93839 61.2224
rfingers 7.12502
rthumb 23.7325 32.6678
lclavicle 6.8295e-014 3.97569e-014
lhumerus -24.0657 19.0374 44.1788
lradius 109.745
lwrist 49.3739
lhand 3.44386 43.0916
lfingers 7.12502
lthumb 28.8846 70.8752
rfemur -14.117 -12.9571 32.1795
rtibia 28.6144
rfoot -16.2702 26.4736
rtoes -8.56609
lfemur -23.8485 0.298323 -11.5404
ltibia 74.9102
lfoot -8.88367 3.35401
ltoes -29.6918
564
root 11.9938 15.6076 -2.04827 -406.508 -106.277 404.437
lowerback 8.03412 3.35581 7.28699
upperback -0.842362 5.29295 5.3807
thorax -5.25129 2.39865 0.91691
lowerneck -3.21831 -1.56104 -6.51971
upperneck 25.2532 -2.17916 -0.573947
head 8.44154 -2.02472 0.691165
rclavicle -1.56667e-014 -5.92378e-014
rhumerus -22.5129 23.7964 -103.276
rradius 52.8097
rwrist 9.39635
rhand -2.26107 62.2052
rfingers 7.12502
rthumb 23.423 33.6107
lclavicle -1.56667e-014 -5.92378e-014
lhumerus -25.5476 19.8352 42.8268
lradius 110.792
lwrist 49.1928
lhand 4.02378 43.0721
lfingers 7.12502
lthumb 29.4384 70.7596
rfemur -12.6208 -13.2476 33.3683
rtibia 27.9681
rfoot -16.8098 26.2328
rtoes -9.2057
lfemur -25.7013 1.90519 -9.78971
ltibia 78.0177
lfoot -7.7945 3.05463
ltoes -26.5707
565
root 11.8083 15.6086 -2.07918 -408.54 -106.87 406.427
lowerback 8.42975 3.35018 8.28021
upperback -0.846356 5.41829 5.57963
thorax -5.4078 2.41601 0.547729
lowerneck -3.15425 -1.45092 -6.55913
upperneck 25.5378 -2.0298 -0.634508
head 8.52357 -1.97841 0.687667
rclavicle 3.26628e-014 3.77691e-014
rhumerus -23.5245 23.0822 -103.68
rradius 52.1486
rwrist 9.26068
rhand -3.82872 63.629
rfingers 7.12502
rthumb 21.9184 34.8506
lclavicle 3.26628e-014 3.77691e-014
lhumerus -27.001 20.612 41.4215
lradius 111.639
lwrist 49.0013
lhand 4.87108 42.8914
lfingers 7.12502
lthumb 30.247 70.4336
rfemur -11.2275 -13.0876 34.007
rtibia 27.2912
rfoot -17.6802 25.8157
rtoes -10.9793
lfemur -27.2657 3.57928 -8.82269
ltibia 79.8692
lfoot -8.47108 4.23365
ltoes -27.4981
566
root 11.6171 15.6282 -2.10213 -408.987 -106.94 407.162
lowerback 8.4269 3.40509 8.64575
upperback -0.908558 5.52944 5.62299
thorax -5.43889 2.45439 0.381413
lowerneck -3.22932 -1.36988 -6.63676
upperneck 25.8773 -1.8921 -0.734119
head 8.65179 -1.94542 0.67464
rclavicle -3.8471e-014 2.10712e-014
rhumerus -24.3623 22.3436 -103.887
rradius 51.7374
rwrist 8.79389
rhand -4.42867 64.4922
rfingers 7.12502
rthumb 21.3423 35.6475
lclavicle -3.8471e-014 2.10712e-014
lhumerus -28.4628 21.5308 40.2583
lradius 112.353
lwrist 48.8046
lhand 5.6384 42.5105
lfingers 7.12502
lthumb 30.9787 69.9161
rfemur -10.3605 -12.7722 34.056
rtibia 26.7559
rfoot -17.8585 25.878
rtoes -9.14058
lfemur -28.9874 5.18499 -8.7355
ltibia 80.8518
lfoot -9.3832 5.65475
ltoes -26.0039
567
root 11.4236 15.6395 -2.08741 -412.515 -105.789 411.62
lowerback 7.75462 3.00796 9.30198
upperback -1.15044 4.99128 5.45719
thorax -5.27328 2.17015 -0.0527748
lowerneck -3.32724 -1.35208 -6.51168
upperneck 26.0566 -1.80539 -1.03852
head 8.72653 -1.9283 0.554911
rclavicle -3.03581e-014 -3.10104e-014
rhumerus -25.0159 21.4196 -103.94
rradius 51.4092
rwrist 8.36198
rhand -4.68704 65.0076
rfingers 7.12502
rthumb 21.0941 36.135
lclavicle -3.03581e-014 -3.10104e-014
lhumerus -29.8262 22.3696 39.563
lradius 113.078
lwrist 49.2727
lhand 4.50554 42.2791
lfingers 7.12502
lthumb 29.8982 69.8847
rfemur -10.5125 -13.7001 33.8656
rtibia 26.5087
rfoot -18.2523 25.6571
rtoes -7.22903
lfemur -31.9079 5.24659 -9.39609
ltibia 81.1569
lfoot -10.1733 6.85171
ltoes -25.0739
568
root 11.2274 15.6476 -2.10306 -414.33 -105.2 414.109
lowerback 7.30765 2.95825 9.39764
upperback -1.28232 4.88528 5.39178
thorax -5.15279 2.1183 -0.139557
lowerneck -3.27686 -1.39392 -6.33652
upperneck 26.0128 -1.83286 -1.2528
head 8.69898 -1.94091 0.45155
rclavicle 2.80845e-014 3.37934e-014
rhumerus -25.491 20.1308 -103.727
rradius 51.1824
rwrist 9.01772
rhand -4.28783 65.4278
rfingers 7.12502
rthumb 21.4775 36.5985
lclavicle 2.80845e-014 3.37934e-014
lhumerus -31.176 23.3977 38.6842
lradius 113.791
lwrist 48.8868
lhand 6.78484 42.3096
lfingers 7.12502
lthumb 32.0709 69.5013
rfemur -10.5149 -13.79 33.8149
rtibia 26.6198
rfoot -19.5048 24.77
rtoes -9.12614
lfemur -34.1088 6.28904 -9.79895
ltibia 80.7199
lfoot -11.2715 7.04948
ltoes -23.1935
569
root 11.0245 15.6549 -2.1355 -414.364 -104.743 414.508
lowerback 7.20027 3.1634 8.91219
upperback -1.37111 5.11739 5.31086
thorax -5.20286 2.24839 0.0188964
lowerneck -3.08197 -1.52945 -6.36422
upperneck 25.8731 -2.04594 -1.17154
head 8.62159 -2.02707 0.47003
rclavicle 3.88966e-014 5.60573e-014
rhumerus -25.8933 18.8704 -103.329
rradius 50.7608
rwrist 9.65127
rhand -4.14984 65.837
rfingers 7.12502
rthumb 21.6101 37.0228
lclavicle 3.88966e-014 5.60573e-014
lhumerus -32.5279 24.0571 37.908
lradius 114.749
lwrist 49.3264
lhand 7.44581 42.3918
lfingers 7.12502
lthumb 32.6999 69.4548
rfemur -10.2876 -13.293 33.5208
rtibia 27.0484
rfoot -20.9274 23.4257
rtoes -12.1821
lfemur -35.5671 7.83281 -10.3661
ltibia 79.5445
lfoot -13.0322 6.46216
ltoes -23.7141
570
root 10.8178 15.6638 -2.16843 -412.97 -104.095 413.521
lowerback 7.14579 3.51163 8.01414
upperback -1.509 5.52023 5.1035
thorax -5.35301 2.47499 0.246876
lowerneck -2.90044 -1.76914 -6.5932
upperneck 25.6816 -2.413 -0.923835
head 8.53944 -2.18513 0.566786
rclavicle 3.77613e-014 3.69739e-014
rhumerus -26.1844 17.5234 -102.764
rradius 50.2305
rwrist 10.2563
rhand -4.26806 66.1542
rfingers 7.12502
rthumb 21.4965 37.327
lclavicle 3.77613e-014 3.69739e-014
lhumerus -33.8276 24.6308 37.2322
lradius 115.826
lwrist 50.01
lhand 6.85512 42.4838
lfingers 7.12502
lthumb 32.1378 69.662
rfemur -10.1679 -12.4369 32.8835
rtibia 27.5363
rfoot -21.8128 21.9687
rtoes -12.9641
lfemur -36.8578 9.5211 -11.3788
ltibia 77.679
lfoot -15.2685 5.95847
ltoes -27.0905
571
root 10.6022 15.6666 -2.17207 -414.095 -102.832 414.918
lowerback 7.26164 3.60948 7.46159
upperback -1.62598 5.63053 4.72577
thorax -5.54869 2.54394 0.129075
lowerneck -2.90655 -2.09554 -6.95345
upperneck 25.5258 -2.8994 -0.514566
head 8.51497 -2.39442 0.727615
rclavicle -1.37814e-014 -1.23246e-014
rhumerus -26.1816 15.979 -101.967
rradius 49.5229
rwrist 11.1183
rhand -4.4161 67.0686
rfingers 7.12502
rthumb 21.3543 38.2252
lclavicle -1.37814e-014 -1.23246e-014
lhumerus -35.1563 25.1803 36.4991
lradius 117.04
lwrist 50.7971
lhand 6.47692 42.504
lfingers 7.12502
lthumb 31.7777 69.7543
rfemur -9.90894 -12.0424 31.9516
rtibia 28.0556
rfoot -22.7137 20.0727
rtoes -13.2693
lfemur -38.044 10.1872 -12.7947
ltibia 75.2522
lfoot -16.8967 6.15546
ltoes -27.2909
